<?xml version="1.0" encoding="UTF-8" standalone="no"?>
<!DOCTYPE svg PUBLIC "-//W3C//DTD SVG 1.1//EN" "http://www.w3.org/Graphics/SVG/1.1/DTD/svg11.dtd">
<svg xmlns="http://www.w3.org/2000/svg" version="1.1" viewBox="0.00 0.00 500.00 500.00">
<path fill="#FFFFFF" d="
  M 123.20 158.42
  L 150.94 158.41
  Q 151.29 158.41 151.39 158.74
  L 192.08 290.23
  A 0.44 0.44 0.0 0 0 192.92 290.23
  L 236.01 158.95
  Q 236.21 158.36 236.83 158.37
  Q 245.89 158.49 254.25 158.30
  Q 272.50 157.90 290.72 158.41
  A 0.34 0.33 0.9 0 1 291.05 158.74
  L 291.05 236.31
  Q 291.05 237.44 291.70 236.52
  C 297.86 227.80 303.93 219.02 310.65 210.60
  Q 331.17 184.85 351.97 158.73
  A 0.87 0.86 -70.3 0 1 352.64 158.41
  L 392.20 158.40
  A 0.30 0.30 0.0 0 1 392.44 158.89
  L 332.86 234.48
  A 0.54 0.52 -42.9 0 0 332.83 235.09
  L 380.25 310.30
  Q 380.52 310.74 380.52 310.22
  L 380.52 253.50
  A 0.26 0.25 -90.0 0 1 380.77 253.24
  L 422.18 253.23
  Q 422.62 253.23 422.62 253.67
  L 422.62 410.79
  Q 422.62 411.31 422.24 411.67
  Q 420.87 412.99 419.43 414.19
  Q 390.73 437.97 354.47 450.43
  Q 349.32 452.20 340.52 454.76
  Q 333.48 456.81 326.37 458.34
  Q 312.04 461.42 298.16 462.73
  Q 288.00 463.69 272.44 464.04
  Q 256.33 464.40 237.74 462.17
  Q 195.13 457.05 157.37 436.28
  Q 108.96 409.65 80.75 362.11
  Q 62.84 331.93 56.21 297.63
  C 48.09 255.68 51.18 209.40 68.05 169.79
  Q 93.89 109.15 149.36 75.09
  C 198.60 44.84 259.42 36.76 316.28 46.33
  C 357.37 53.25 396.28 71.61 424.51 101.96
  A 0.55 0.55 0.0 0 1 424.50 102.71
  L 398.12 129.58
  A 0.74 0.74 0.0 0 1 397.08 129.59
  Q 364.74 98.29 321.49 87.43
  Q 311.96 85.04 301.87 83.76
  Q 281.30 81.17 262.38 82.04
  Q 250.20 82.61 236.59 85.01
  C 190.18 93.20 149.21 118.49 122.91 157.89
  Q 122.56 158.42 123.20 158.42
  Z
  M 290.27 331.00
  L 252.51 331.00
  Q 251.93 331.00 251.93 330.42
  Q 251.90 287.56 251.94 246.48
  C 251.95 229.80 252.98 212.87 253.63 196.18
  A 0.51 0.51 0.0 0 0 252.79 195.77
  Q 252.50 196.01 252.39 196.36
  Q 230.26 263.68 208.26 330.45
  Q 208.08 331.00 207.50 331.00
  L 175.02 331.00
  A 0.61 0.61 0.0 0 1 174.44 330.57
  Q 153.66 262.86 133.10 195.88
  Q 132.94 195.35 132.41 195.43
  Q 131.89 195.50 131.92 196.03
  Q 134.07 234.05 134.12 251.86
  Q 134.26 294.28 134.18 330.36
  Q 134.17 331.00 133.54 331.00
  L 113.45 331.00
  Q 112.76 331.00 113.07 331.61
  C 132.11 369.01 164.41 397.75 203.03 412.73
  Q 232.15 424.03 264.70 424.87
  C 287.03 425.44 309.52 423.12 330.76 416.97
  Q 357.35 409.29 380.34 393.05
  A 0.41 0.39 -17.4 0 0 380.52 392.72
  L 380.52 331.26
  A 0.26 0.26 0.0 0 0 380.26 331.00
  L 352.20 331.00
  Q 351.77 331.00 351.55 330.64
  L 306.79 258.62
  A 0.42 0.42 0.0 0 0 306.19 258.51
  L 291.53 269.03
  Q 291.04 269.38 291.04 269.98
  L 291.05 330.23
  Q 291.05 331.00 290.27 331.00
  Z
  M 101.14 205.26
  Q 99.50 212.57 98.08 220.51
  Q 91.00 260.20 100.85 299.29
  Q 101.53 302.02 101.52 299.21
  Q 101.40 251.02 101.59 207.74
  Q 101.60 206.44 101.42 205.27
  Q 101.31 204.49 101.14 205.26
  Z"
/>
</svg>
